<svg xmlns="http://www.w3.org/2000/svg" viewBox="0 0 24 24"><path d="M 21 5 L 3 5 C 1.894531 5 1 5.894531 1 7 L 1 17 C 1 18.105469 1.894531 19 3 19 L 21 19 C 22.105469 19 23 18.105469 23 17 L 23 7 C 23 5.894531 22.105469 5 21 5 Z M 8.273438 14.082031 C 9.367188 14.082031 9.378906 13.234375 9.390625 13.066406 L 10.5625 13.066406 C 10.527344 13.464844 10.320313 15.039063 8.273438 15.039063 C 7.578125 15.039063 5.925781 14.695313 5.925781 12.308594 L 5.925781 11.933594 C 5.925781 10.996094 6.304688 9.195313 8.289063 9.195313 C 10.34375 9.195313 10.542969 10.914063 10.570313 11.203125 L 9.398438 11.203125 C 9.386719 11.035156 9.414063 10.15625 8.289063 10.15625 C 7.1875 10.15625 7.113281 11.320313 7.113281 11.925781 L 7.113281 12.308594 C 7.113281 14.097656 7.96875 14.082031 8.273438 14.082031 Z M 13.378906 14.9375 C 13.28125 14.964844 13.042969 15.039063 12.691406 15.039063 C 11.441406 15.039063 11.480469 13.976563 11.480469 13.792969 L 11.480469 11.5625 L 10.863281 11.5625 L 10.863281 10.734375 L 11.480469 10.734375 L 11.480469 9.695313 L 12.609375 9.695313 L 12.609375 10.734375 L 13.335938 10.734375 L 13.335938 11.5625 L 12.609375 11.5625 L 12.609375 13.671875 C 12.609375 13.960938 12.679688 14.109375 13.046875 14.109375 C 13.113281 14.109375 13.335938 14.089844 13.378906 14.082031 Z M 16.339844 11.792969 C 16.28125 11.785156 15.992188 11.761719 15.933594 11.761719 C 15.320313 11.761719 15.15625 12.054688 15.09375 12.195313 L 15.09375 14.960938 L 13.964844 14.960938 L 13.964844 10.734375 L 15.027344 10.734375 L 15.058594 11.238281 C 15.164063 11.054688 15.441406 10.65625 16 10.65625 C 16.097656 10.65625 16.3125 10.695313 16.351563 10.707031 Z M 18.070313 14.960938 L 16.9375 14.960938 L 16.9375 8.960938 L 18.070313 8.960938 Z"></path></svg>
